# MagicaVoxel @ Ephtracy

# group
o 

# material
mtllib flag1.mtl
usemtl palette

# normals
vn -1 0 0
vn 1 0 0
vn 0 0 1
vn 0 0 -1
vn 0 -1 0
vn 0 1 0

# texcoords
vt 0.841797 0.5
vt 0.873047 0.5

# verts
v -0.6 0 0.0999999
v -0.6 0 -5.96046e-08
v -0.6 0.2 0.2
v -0.6 0.2 0.0999999
v -0.6 0.3 -5.96046e-08
v -0.6 0.3 -0.1
v -0.6 4 0.2
v -0.6 4 -0.1
v -0.5 0 0.2
v -0.5 0 0.0999999
v -0.5 0 -5.96046e-08
v -0.5 0 -0.1
v -0.5 0.2 0.2
v -0.5 0.2 0.0999999
v -0.5 0.3 -5.96046e-08
v -0.5 0.3 -0.1
v -0.2 3.8 0.2
v -0.2 3.8 -0.1
v -0.2 3.9 0.2
v -0.2 3.9 -0.1
v -0.0999999 3.9 0.2
v -0.0999999 3.9 -0.1
v -0.0999999 4 0.2
v -0.0999999 4 -0.1
v 0.7 2.3 0.2
v 0.7 2.3 -0.1
v 0.7 2.4 0.2
v 0.7 2.4 -0.1
v 0.9 2.2 0.2
v 0.9 2.2 -0.1
v 0.9 2.3 0.2
v 0.9 2.3 -0.1
v 1.7 3.8 0.2
v 1.7 3.8 -0.1
v 1.7 3.9 0.2
v 1.7 3.9 -0.1
v 1.9 3.9 0.2
v 1.9 3.9 -0.1
v 1.9 4 0.2
v 1.9 4 -0.1
v -0.4 0 0.2
v -0.4 0 0.0999999
v -0.4 0 -5.96046e-08
v -0.4 0 -0.1
v -0.4 0.1 -5.96046e-08
v -0.4 0.1 -0.1
v -0.4 0.4 0.2
v -0.4 0.4 0.0999999
v -0.3 0 0.0999999
v -0.3 0 -5.96046e-08
v -0.3 0.1 -5.96046e-08
v -0.3 0.1 -0.1
v -0.3 0.4 0.2
v -0.3 0.4 0.0999999
v -0.3 2.3 0.2
v -0.3 2.3 -0.1
v -0.3 3.8 0.2
v -0.3 3.8 -0.1
v -0.3 4 0.2
v -0.3 4 -0.1
v -0.0999999 2.3 0.2
v -0.0999999 2.3 -0.1
v -0.0999999 2.4 0.2
v -0.0999999 2.4 -0.1
v 0.8 3.9 0.2
v 0.8 3.9 -0.1
v 0.8 4 0.2
v 0.8 4 -0.1
v 1 3.8 0.2
v 1 3.8 -0.1
v 1 3.9 0.2
v 1 3.9 -0.1
v 1.8 2.2 0.2
v 1.8 2.2 -0.1
v 1.8 2.3 0.2
v 1.8 2.3 -0.1
v 1.9 2.3 0.2
v 1.9 2.3 -0.1
v 1.9 2.4 0.2
v 1.9 2.4 -0.1
v 2 2.4 0.2
v 2 2.4 -0.1
v 2 4 0.2
v 2 4 -0.1
v -0.6 0.2 0.2
v -0.6 4 0.2
v -0.5 0 0.2
v -0.5 0.2 0.2
v -0.4 0 0.2
v -0.4 0.4 0.2
v -0.3 0.4 0.2
v -0.3 2.3 0.2
v -0.3 3.8 0.2
v -0.3 4 0.2
v -0.2 3.8 0.2
v -0.2 3.9 0.2
v -0.0999999 2.3 0.2
v -0.0999999 2.4 0.2
v -0.0999999 3.9 0.2
v -0.0999999 4 0.2
v 0.7 2.3 0.2
v 0.7 2.4 0.2
v 0.8 3.9 0.2
v 0.8 4 0.2
v 0.9 2.2 0.2
v 0.9 2.3 0.2
v 1 3.8 0.2
v 1 3.9 0.2
v 1.7 3.8 0.2
v 1.7 3.9 0.2
v 1.8 2.2 0.2
v 1.8 2.3 0.2
v 1.9 2.3 0.2
v 1.9 2.4 0.2
v 1.9 3.9 0.2
v 1.9 4 0.2
v 2 2.4 0.2
v 2 4 0.2
v -0.6 0 0.0999999
v -0.6 0.2 0.0999999
v -0.5 0 0.0999999
v -0.5 0.2 0.0999999
v -0.4 0 0.0999999
v -0.4 0.4 0.0999999
v -0.3 0 0.0999999
v -0.3 0.4 0.0999999
v -0.6 0 -5.96046e-08
v -0.6 0.3 -5.96046e-08
v -0.5 0 -5.96046e-08
v -0.5 0.3 -5.96046e-08
v -0.4 0 -5.96046e-08
v -0.4 0.1 -5.96046e-08
v -0.3 0 -5.96046e-08
v -0.3 0.1 -5.96046e-08
v -0.6 0.3 -0.1
v -0.6 4 -0.1
v -0.5 0 -0.1
v -0.5 0.3 -0.1
v -0.4 0 -0.1
v -0.4 0.1 -0.1
v -0.3 0.1 -0.1
v -0.3 2.3 -0.1
v -0.3 3.8 -0.1
v -0.3 4 -0.1
v -0.2 3.8 -0.1
v -0.2 3.9 -0.1
v -0.0999999 2.3 -0.1
v -0.0999999 2.4 -0.1
v -0.0999999 3.9 -0.1
v -0.0999999 4 -0.1
v 0.7 2.3 -0.1
v 0.7 2.4 -0.1
v 0.8 3.9 -0.1
v 0.8 4 -0.1
v 0.9 2.2 -0.1
v 0.9 2.3 -0.1
v 1 3.8 -0.1
v 1 3.9 -0.1
v 1.7 3.8 -0.1
v 1.7 3.9 -0.1
v 1.8 2.2 -0.1
v 1.8 2.3 -0.1
v 1.9 2.3 -0.1
v 1.9 2.4 -0.1
v 1.9 3.9 -0.1
v 1.9 4 -0.1
v 2 2.4 -0.1
v 2 4 -0.1
v -0.5 0 0.2
v -0.4 0 0.2
v -0.6 0 0.0999999
v -0.5 0 0.0999999
v -0.4 0 0.0999999
v -0.3 0 0.0999999
v -0.6 0 -5.96046e-08
v -0.5 0 -5.96046e-08
v -0.4 0 -5.96046e-08
v -0.3 0 -5.96046e-08
v -0.5 0 -0.1
v -0.4 0 -0.1
v -0.4 0.1 -5.96046e-08
v -0.3 0.1 -5.96046e-08
v -0.4 0.1 -0.1
v -0.3 0.1 -0.1
v -0.6 0.2 0.2
v -0.5 0.2 0.2
v -0.6 0.2 0.0999999
v -0.5 0.2 0.0999999
v -0.6 0.3 -5.96046e-08
v -0.5 0.3 -5.96046e-08
v -0.6 0.3 -0.1
v -0.5 0.3 -0.1
v -0.4 0.4 0.2
v -0.3 0.4 0.2
v -0.4 0.4 0.0999999
v -0.3 0.4 0.0999999
v 0.9 2.2 0.2
v 1.8 2.2 0.2
v 0.9 2.2 -0.1
v 1.8 2.2 -0.1
v -0.3 2.3 0.2
v -0.0999999 2.3 0.2
v 0.7 2.3 0.2
v 0.9 2.3 0.2
v 1.8 2.3 0.2
v 1.9 2.3 0.2
v -0.3 2.3 -0.1
v -0.0999999 2.3 -0.1
v 0.7 2.3 -0.1
v 0.9 2.3 -0.1
v 1.8 2.3 -0.1
v 1.9 2.3 -0.1
v -0.0999999 2.4 0.2
v 0.7 2.4 0.2
v 1.9 2.4 0.2
v 2 2.4 0.2
v -0.0999999 2.4 -0.1
v 0.7 2.4 -0.1
v 1.9 2.4 -0.1
v 2 2.4 -0.1
v -0.3 3.8 0.2
v -0.2 3.8 0.2
v 1 3.8 0.2
v 1.7 3.8 0.2
v -0.3 3.8 -0.1
v -0.2 3.8 -0.1
v 1 3.8 -0.1
v 1.7 3.8 -0.1
v -0.2 3.9 0.2
v -0.0999999 3.9 0.2
v 0.8 3.9 0.2
v 1 3.9 0.2
v 1.7 3.9 0.2
v 1.9 3.9 0.2
v -0.2 3.9 -0.1
v -0.0999999 3.9 -0.1
v 0.8 3.9 -0.1
v 1 3.9 -0.1
v 1.7 3.9 -0.1
v 1.9 3.9 -0.1
v -0.6 4 0.2
v -0.3 4 0.2
v -0.0999999 4 0.2
v 0.8 4 0.2
v 1.9 4 0.2
v 2 4 0.2
v -0.6 4 -0.1
v -0.3 4 -0.1
v -0.0999999 4 -0.1
v 0.8 4 -0.1
v 1.9 4 -0.1
v 2 4 -0.1

# faces
f 4/2/1 2/2/1 1/2/1
f 5/2/1 2/2/1 4/2/1
f 5/2/1 4/2/1 3/2/1
f 7/2/1 5/2/1 3/2/1
f 7/2/1 6/2/1 5/2/1
f 8/2/1 6/2/1 7/2/1
f 13/2/1 10/2/1 9/2/1
f 14/2/1 10/2/1 13/2/1
f 15/2/1 12/2/1 11/2/1
f 16/2/1 12/2/1 15/2/1
f 19/1/1 18/1/1 17/1/1
f 20/1/1 18/1/1 19/1/1
f 23/1/1 22/1/1 21/1/1
f 24/1/1 22/1/1 23/1/1
f 27/1/1 26/1/1 25/1/1
f 28/1/1 26/1/1 27/1/1
f 31/1/1 30/1/1 29/1/1
f 32/1/1 30/1/1 31/1/1
f 35/1/1 34/1/1 33/1/1
f 36/1/1 34/1/1 35/1/1
f 39/1/1 38/1/1 37/1/1
f 40/1/1 38/1/1 39/1/1
f 43/2/2 44/2/2 45/2/2
f 45/2/2 44/2/2 46/2/2
f 41/2/2 42/2/2 47/2/2
f 47/2/2 42/2/2 48/2/2
f 49/2/2 50/2/2 51/2/2
f 49/2/2 51/2/2 54/2/2
f 51/2/2 52/2/2 54/2/2
f 53/2/2 54/2/2 55/2/2
f 54/2/2 52/2/2 56/2/2
f 55/2/2 54/2/2 56/2/2
f 57/2/2 58/2/2 59/2/2
f 59/2/2 58/2/2 60/2/2
f 61/1/2 62/1/2 63/1/2
f 63/1/2 62/1/2 64/1/2
f 65/1/2 66/1/2 67/1/2
f 67/1/2 66/1/2 68/1/2
f 69/1/2 70/1/2 71/1/2
f 71/1/2 70/1/2 72/1/2
f 73/1/2 74/1/2 75/1/2
f 75/1/2 74/1/2 76/1/2
f 77/1/2 78/1/2 79/1/2
f 79/1/2 78/1/2 80/1/2
f 81/1/2 82/1/2 83/1/2
f 83/1/2 82/1/2 84/1/2
f 88/2/3 86/2/3 85/2/3
f 89/2/3 88/2/3 87/2/3
f 90/2/3 86/2/3 88/2/3
f 90/2/3 88/2/3 89/2/3
f 91/2/3 86/2/3 90/2/3
f 92/2/3 86/2/3 91/2/3
f 93/2/3 86/2/3 92/2/3
f 94/2/3 86/2/3 93/2/3
f 95/1/3 93/1/3 92/1/3
f 97/1/3 95/1/3 92/1/3
f 97/1/3 96/1/3 95/1/3
f 98/1/3 96/1/3 97/1/3
f 99/1/3 96/1/3 98/1/3
f 102/1/3 100/1/3 99/1/3
f 102/1/3 99/1/3 98/1/3
f 103/1/3 100/1/3 102/1/3
f 103/1/3 102/1/3 101/1/3
f 104/1/3 100/1/3 103/1/3
f 106/1/3 103/1/3 101/1/3
f 107/1/3 103/1/3 106/1/3
f 107/1/3 106/1/3 105/1/3
f 108/1/3 103/1/3 107/1/3
f 109/1/3 107/1/3 105/1/3
f 111/1/3 109/1/3 105/1/3
f 111/1/3 110/1/3 109/1/3
f 112/1/3 110/1/3 111/1/3
f 113/1/3 110/1/3 112/1/3
f 114/1/3 110/1/3 113/1/3
f 115/1/3 110/1/3 114/1/3
f 117/1/3 115/1/3 114/1/3
f 117/1/3 116/1/3 115/1/3
f 118/1/3 116/1/3 117/1/3
f 121/2/3 120/2/3 119/2/3
f 122/2/3 120/2/3 121/2/3
f 125/2/3 124/2/3 123/2/3
f 126/2/3 124/2/3 125/2/3
f 127/2/4 128/2/4 129/2/4
f 129/2/4 128/2/4 130/2/4
f 131/2/4 132/2/4 133/2/4
f 133/2/4 132/2/4 134/2/4
f 135/2/4 136/2/4 138/2/4
f 137/2/4 138/2/4 139/2/4
f 139/2/4 138/2/4 140/2/4
f 140/2/4 138/2/4 141/2/4
f 138/2/4 136/2/4 142/2/4
f 141/2/4 138/2/4 142/2/4
f 142/2/4 136/2/4 143/2/4
f 143/2/4 136/2/4 144/2/4
f 142/1/4 143/1/4 145/1/4
f 142/1/4 145/1/4 147/1/4
f 145/1/4 146/1/4 147/1/4
f 147/1/4 146/1/4 148/1/4
f 148/1/4 146/1/4 149/1/4
f 149/1/4 150/1/4 152/1/4
f 148/1/4 149/1/4 152/1/4
f 152/1/4 150/1/4 153/1/4
f 151/1/4 152/1/4 153/1/4
f 153/1/4 150/1/4 154/1/4
f 151/1/4 153/1/4 156/1/4
f 156/1/4 153/1/4 157/1/4
f 155/1/4 156/1/4 157/1/4
f 157/1/4 153/1/4 158/1/4
f 155/1/4 157/1/4 159/1/4
f 155/1/4 159/1/4 161/1/4
f 159/1/4 160/1/4 161/1/4
f 161/1/4 160/1/4 162/1/4
f 162/1/4 160/1/4 163/1/4
f 163/1/4 160/1/4 164/1/4
f 164/1/4 160/1/4 165/1/4
f 164/1/4 165/1/4 167/1/4
f 165/1/4 166/1/4 167/1/4
f 167/1/4 166/1/4 168/1/4
f 172/2/5 170/2/5 169/2/5
f 173/2/5 170/2/5 172/2/5
f 175/2/5 172/2/5 171/2/5
f 175/2/5 174/2/5 173/2/5
f 175/2/5 173/2/5 172/2/5
f 176/2/5 174/2/5 175/2/5
f 177/2/5 174/2/5 176/2/5
f 178/2/5 174/2/5 177/2/5
f 179/2/5 177/2/5 176/2/5
f 180/2/5 177/2/5 179/2/5
f 183/2/5 182/2/5 181/2/5
f 184/2/5 182/2/5 183/2/5
f 187/2/5 186/2/5 185/2/5
f 188/2/5 186/2/5 187/2/5
f 191/2/5 190/2/5 189/2/5
f 192/2/5 190/2/5 191/2/5
f 195/2/5 194/2/5 193/2/5
f 196/2/5 194/2/5 195/2/5
f 199/1/5 198/1/5 197/1/5
f 200/1/5 198/1/5 199/1/5
f 207/1/5 202/1/5 201/1/5
f 208/1/5 202/1/5 207/1/5
f 209/1/5 204/1/5 203/1/5
f 210/1/5 204/1/5 209/1/5
f 211/1/5 206/1/5 205/1/5
f 212/1/5 206/1/5 211/1/5
f 217/1/5 214/1/5 213/1/5
f 218/1/5 214/1/5 217/1/5
f 219/1/5 216/1/5 215/1/5
f 220/1/5 216/1/5 219/1/5
f 221/1/6 222/1/6 225/1/6
f 225/1/6 222/1/6 226/1/6
f 223/1/6 224/1/6 227/1/6
f 227/1/6 224/1/6 228/1/6
f 229/1/6 230/1/6 235/1/6
f 235/1/6 230/1/6 236/1/6
f 231/1/6 232/1/6 237/1/6
f 237/1/6 232/1/6 238/1/6
f 233/1/6 234/1/6 239/1/6
f 239/1/6 234/1/6 240/1/6
f 241/2/6 242/2/6 247/2/6
f 247/2/6 242/2/6 248/2/6
f 243/1/6 244/1/6 249/1/6
f 249/1/6 244/1/6 250/1/6
f 245/1/6 246/1/6 251/1/6
f 251/1/6 246/1/6 252/1/6
